<?xml version="1.0" encoding="UTF-8"?>
<svg id="uuid-de51719e-30fd-4581-80b3-8f3d992ec05c" data-name="Calque 1" xmlns="http://www.w3.org/2000/svg" viewBox="0 0 1960.42 1362.88">
  <path d="M611.53,447.33c-221.94-54.04-445.66,82.08-499.7,304.01-54.04,221.94,82.08,445.66,304.01,499.7,221.94,54.04,445.66-82.08,499.7-304.01l129.33-531.18c54.04-221.94,277.76-358.05,499.7-304.01,221.94,54.04,358.05,277.76,304.01,499.7-54.04,221.94-277.76,358.05-499.7,304.01" style="fill: none; stroke: #1d1d1b; stroke-linecap: round; stroke-miterlimit: 10; stroke-width: 200px;"/>
  <path d="M611.53,447.33c-221.94-54.04-445.66,82.08-499.7,304.01-54.04,221.94,82.08,445.66,304.01,499.7,221.94,54.04,445.66-82.08,499.7-304.01l129.33-531.18c54.04-221.94,277.76-358.05,499.7-304.01,221.94,54.04,358.05,277.76,304.01,499.7-54.04,221.94-277.76,358.05-499.7,304.01" style="fill: none; stroke: #fff; stroke-linecap: round; stroke-miterlimit: 10; stroke-width: 50px;"/>
</svg>
